<?xml version="1.0" encoding="utf-8"?>
<!-- Generator: Adobe Illustrator 16.2.1, SVG Export Plug-In . SVG Version: 6.00 Build 0)  -->
<!DOCTYPE svg PUBLIC "-//W3C//DTD SVG 1.1//EN" "http://www.w3.org/Graphics/SVG/1.1/DTD/svg11.dtd">
<svg version="1.1" xmlns="http://www.w3.org/2000/svg" xmlns:xlink="http://www.w3.org/1999/xlink" x="0px" y="0px" viewBox="0 0 100 68.342" enable-background="new 0 0 100 68.342" xml:space="preserve">
<g id="Layer_1">
	<g>
		<polygon fill="#FFFFFF" points="51.89,6.823 36.477,38.234 20.914,6.823 14.161,6.823 8.002,49.848 15.927,49.848 19.75,21.809
			33.671,49.848 39.235,49.848 52.969,22.068 56.81,49.848 64.806,49.848 58.614,6.823 		"/>
		<path fill="#8EC641" d="M87.747,16.01c-2.354-3.615-5.666-6.19-9.837-7.653c-2.902-1.032-7.375-1.534-13.667-1.534h-4.306
			l0.889,6.169h1.752c5.735,0,9.88,0.377,12.322,1.119c3.145,0.958,5.634,2.748,7.39,5.318c1.772,2.596,2.67,5.789,2.67,9.489
			c0,3.516-0.824,6.519-2.452,8.924c-1.636,2.415-3.822,4.042-6.681,4.972c-1.595,0.515-4.275,0.826-7.938,0.943l0.877,6.091h0.005
			c5.245,0,9.409-0.79,12.377-2.347c2.997-1.571,5.462-4.032,7.328-7.312c1.852-3.261,2.793-7.076,2.793-11.339
			C91.27,23.917,90.084,19.596,87.747,16.01z"/>
		<path fill="#FFFFFF" d="M8,55.306h0.793v1.065c0.276-0.393,0.559-0.681,0.852-0.861c0.401-0.241,0.824-0.364,1.266-0.364
			c0.298,0,0.583,0.062,0.852,0.177c0.27,0.116,0.489,0.274,0.658,0.469c0.171,0.195,0.319,0.474,0.443,0.837
			c0.264-0.484,0.595-0.853,0.99-1.104c0.395-0.251,0.822-0.378,1.279-0.378c0.426,0,0.803,0.111,1.129,0.325
			c0.326,0.216,0.568,0.516,0.727,0.902c0.158,0.385,0.237,0.964,0.237,1.735v3.368h-0.81v-3.368c0-0.662-0.048-1.117-0.143-1.364
			c-0.095-0.246-0.255-0.447-0.482-0.598c-0.228-0.151-0.5-0.228-0.817-0.228c-0.384,0-0.736,0.114-1.054,0.34
			c-0.317,0.227-0.552,0.529-0.697,0.908c-0.148,0.379-0.221,1.009-0.221,1.894v2.416h-0.795v-3.159c0-0.744-0.046-1.25-0.138-1.518
			c-0.094-0.268-0.254-0.479-0.485-0.64s-0.504-0.241-0.823-0.241c-0.367,0-0.709,0.11-1.029,0.33
			c-0.32,0.223-0.556,0.521-0.709,0.895c-0.153,0.373-0.229,0.947-0.229,1.719v2.614H8V55.306z"/>
		<path fill="#FFFFFF" d="M21.818,55.146c0.951,0,1.738,0.344,2.364,1.032c0.567,0.628,0.853,1.371,0.853,2.228
			c0,0.864-0.3,1.616-0.9,2.261c-0.6,0.646-1.371,0.967-2.316,0.967c-0.945,0-1.718-0.323-2.319-0.967
			c-0.602-0.645-0.901-1.396-0.901-2.261c0-0.854,0.285-1.594,0.852-2.222C20.074,55.491,20.864,55.146,21.818,55.146z
			 M21.816,55.924c-0.66,0-1.228,0.244-1.702,0.732c-0.474,0.487-0.711,1.078-0.711,1.769c0,0.448,0.107,0.86,0.323,1.248
			c0.217,0.385,0.509,0.683,0.876,0.893c0.367,0.211,0.772,0.314,1.213,0.314c0.44,0,0.844-0.104,1.214-0.314
			c0.367-0.21,0.658-0.508,0.874-0.893c0.216-0.387,0.325-0.8,0.325-1.248c0-0.691-0.239-1.281-0.714-1.769
			C23.039,56.167,22.472,55.924,21.816,55.924z"/>
		<path fill="#FFFFFF" d="M26.503,55.306h0.793v1.105c0.318-0.423,0.669-0.739,1.056-0.949c0.385-0.211,0.804-0.316,1.257-0.316
			c0.461,0,0.87,0.119,1.228,0.354c0.357,0.235,0.621,0.55,0.791,0.946c0.17,0.396,0.255,1.016,0.255,1.854v3.177h-0.793v-2.943
			c0-0.711-0.03-1.186-0.089-1.426c-0.092-0.407-0.269-0.712-0.529-0.917c-0.26-0.207-0.601-0.312-1.022-0.312
			c-0.48,0-0.909,0.158-1.291,0.477c-0.379,0.317-0.63,0.711-0.751,1.179c-0.075,0.308-0.114,0.866-0.114,1.679v2.263h-0.792v-6.169
			H26.503z"/>
		<path fill="#FFFFFF" d="M38.779,59.428l0.67,0.352c-0.219,0.433-0.475,0.778-0.761,1.042c-0.288,0.266-0.612,0.468-0.97,0.604
			c-0.36,0.136-0.767,0.207-1.223,0.207c-1.003,0-1.792-0.33-2.359-0.987c-0.568-0.662-0.851-1.406-0.851-2.24
			c0-0.781,0.24-1.479,0.72-2.092c0.609-0.777,1.425-1.168,2.447-1.168c1.053,0,1.891,0.399,2.519,1.196
			c0.447,0.564,0.675,1.265,0.682,2.111h-5.552c0.017,0.717,0.246,1.303,0.687,1.76c0.443,0.46,0.99,0.689,1.641,0.689
			c0.313,0,0.62-0.058,0.917-0.165c0.296-0.11,0.549-0.254,0.758-0.436C38.312,60.122,38.536,59.83,38.779,59.428z M38.779,57.767
			c-0.107-0.423-0.259-0.762-0.463-1.016c-0.204-0.252-0.47-0.457-0.802-0.61c-0.334-0.158-0.685-0.233-1.051-0.233
			c-0.607,0-1.126,0.194-1.561,0.583c-0.319,0.284-0.559,0.71-0.723,1.276H38.779z"/>
		<path fill="#FFFFFF" d="M40.468,55.306h0.84l2.121,4.75l2.057-4.75h0.846l-3.681,8.426h-0.839L43,61.008L40.468,55.306z"/>
		<g>
			<path fill="#8EC641" d="M53.515,52.632h-0.782c-0.055,0-0.096,0.044-0.096,0.098v3.233c-0.277-0.332-0.594-0.591-0.939-0.772
				c-0.424-0.223-0.898-0.335-1.421-0.335c-0.898,0-1.678,0.329-2.321,0.977c-0.637,0.646-0.96,1.438-0.96,2.347
				c0,0.931,0.321,1.731,0.952,2.379c0.635,0.649,1.411,0.979,2.306,0.979c0.505,0,0.978-0.105,1.403-0.315
				c0.354-0.176,0.682-0.424,0.98-0.743v0.803c0,0.054,0.043,0.098,0.096,0.098h0.782c0.054,0,0.097-0.045,0.097-0.098V52.73
				C53.611,52.676,53.568,52.632,53.515,52.632z M52.687,58.228c0,0.448-0.101,0.858-0.303,1.216
				c-0.198,0.356-0.487,0.644-0.86,0.851c-0.739,0.418-1.627,0.424-2.347-0.002c-0.357-0.211-0.648-0.51-0.861-0.888
				c-0.213-0.38-0.322-0.785-0.322-1.2c0-0.42,0.106-0.823,0.319-1.196c0.21-0.378,0.499-0.672,0.855-0.881
				c0.358-0.206,0.752-0.311,1.174-0.311c0.659,0,1.217,0.231,1.668,0.689C52.459,56.964,52.687,57.544,52.687,58.228z"/>
			<path fill="#8EC641" d="M58.177,54.855c-1.048,0-1.893,0.406-2.521,1.205c-0.49,0.627-0.74,1.352-0.74,2.154
				c0,0.851,0.293,1.622,0.876,2.298c0.582,0.68,1.401,1.023,2.432,1.023c0.466,0,0.886-0.07,1.256-0.214
				c0.368-0.143,0.704-0.351,1.002-0.623c0.293-0.271,0.556-0.63,0.78-1.069c0.022-0.047,0.006-0.106-0.04-0.131l-0.668-0.35
				c-0.046-0.024-0.103-0.008-0.13,0.036c-0.235,0.392-0.455,0.678-0.656,0.852c-0.197,0.173-0.441,0.312-0.727,0.416
				c-0.284,0.105-0.583,0.16-0.884,0.16c-0.62,0-1.148-0.223-1.569-0.658c-0.404-0.418-0.625-0.954-0.658-1.599h5.45
				c0.028,0,0.053-0.012,0.069-0.028c0.018-0.019,0.029-0.044,0.029-0.068c-0.009-0.862-0.245-1.591-0.702-2.17
				C60.13,55.271,59.256,54.855,58.177,54.855z M56.037,57.476c0.155-0.486,0.376-0.857,0.656-1.105
				c0.414-0.373,0.918-0.561,1.495-0.561c0.353,0,0.693,0.075,1.012,0.224c0.317,0.148,0.576,0.346,0.768,0.583
				c0.174,0.219,0.312,0.507,0.412,0.859H56.037L56.037,57.476z"/>
			<path fill="#8EC641" d="M64.494,57.686c-0.472-0.243-0.782-0.454-0.925-0.63c-0.137-0.163-0.203-0.33-0.203-0.51
				c0-0.2,0.078-0.371,0.245-0.523c0.166-0.155,0.361-0.231,0.596-0.231c0.377,0,0.774,0.199,1.177,0.592
				c0.018,0.019,0.05,0.029,0.07,0.028c0.023,0,0.049-0.013,0.067-0.031l0.51-0.527c0.017-0.019,0.027-0.042,0.027-0.068
				c0-0.025-0.012-0.051-0.03-0.066c-0.592-0.574-1.192-0.862-1.78-0.862c-0.514,0-0.945,0.166-1.281,0.493
				c-0.338,0.326-0.51,0.743-0.51,1.236c0,0.379,0.106,0.721,0.318,1.015c0.212,0.296,0.596,0.584,1.174,0.881
				c0.504,0.258,0.829,0.472,0.968,0.634c0.134,0.162,0.201,0.34,0.201,0.545c0,0.251-0.1,0.461-0.306,0.649
				c-0.207,0.188-0.449,0.278-0.746,0.278c-0.425,0-0.835-0.218-1.218-0.652c-0.018-0.02-0.046-0.033-0.072-0.033l0,0
				c-0.027,0-0.057,0.014-0.073,0.033l-0.499,0.567c-0.032,0.034-0.032,0.088-0.005,0.124c0.219,0.281,0.503,0.508,0.839,0.668
				c0.335,0.161,0.692,0.242,1.061,0.242c0.559,0,1.029-0.188,1.404-0.555c0.37-0.368,0.562-0.827,0.562-1.356
				c0-0.379-0.111-0.724-0.331-1.026C65.509,58.301,65.107,57.999,64.494,57.686z"/>
			<path fill="#8EC641" d="M68.938,58.057l3.309-2.87c0.029-0.027,0.038-0.069,0.025-0.108c-0.016-0.039-0.052-0.063-0.093-0.063
				h-1.165c-0.024,0-0.045,0.009-0.062,0.024l-2.7,2.35V52.73c0-0.055-0.044-0.097-0.096-0.097h-0.795
				c-0.051,0-0.096,0.044-0.096,0.097v8.552c0,0.055,0.045,0.097,0.096,0.097h0.795c0.053,0,0.096-0.044,0.096-0.097v-2.563
				l2.945,2.635c0.02,0.016,0.042,0.025,0.066,0.025h1.114c0.041,0,0.075-0.025,0.092-0.062c0.015-0.036,0.003-0.08-0.024-0.106
				L68.938,58.057z"/>
			<path fill="#8EC641" d="M75.943,55.015h-1.164V52.82c0-0.054-0.043-0.099-0.097-0.099H73.89c-0.056,0-0.098,0.045-0.098,0.099
				v2.194h-0.985c-0.055,0-0.097,0.043-0.097,0.097v0.686c0,0.055,0.042,0.097,0.097,0.097h0.985v5.388
				c0,0.054,0.044,0.098,0.098,0.098h0.793c0.054,0,0.097-0.045,0.097-0.098v-5.388h1.164c0.053,0,0.095-0.043,0.095-0.097v-0.686
				C76.037,55.058,75.995,55.015,75.943,55.015z"/>
			<path fill="#8EC641" d="M80.054,54.855c-0.979,0-1.8,0.359-2.441,1.069c-0.584,0.644-0.879,1.413-0.879,2.29
				c0,0.881,0.314,1.663,0.928,2.323c0.616,0.662,1.422,0.999,2.393,0.999c0.966,0,1.767-0.335,2.386-0.999
				c0.613-0.66,0.926-1.442,0.926-2.323s-0.293-1.651-0.877-2.294C81.846,55.213,81.027,54.855,80.054,54.855z M80.05,55.827
				c0.626,0,1.172,0.236,1.631,0.701c0.452,0.469,0.685,1.039,0.685,1.701c0,0.428-0.104,0.83-0.311,1.2s-0.49,0.657-0.84,0.856
				c-0.353,0.201-0.745,0.301-1.165,0.301c-0.422,0-0.812-0.1-1.163-0.301c-0.351-0.199-0.635-0.486-0.841-0.856
				c-0.208-0.37-0.312-0.772-0.312-1.2c0-0.662,0.23-1.234,0.683-1.701C78.871,56.063,79.42,55.827,80.05,55.827z"/>
			<path fill="#8EC641" d="M90.304,55.832c-0.636-0.646-1.417-0.977-2.316-0.977c-0.516,0-0.989,0.113-1.409,0.335
				c-0.346,0.182-0.659,0.441-0.94,0.773V55.11c0-0.055-0.043-0.097-0.095-0.097h-0.795c-0.054,0-0.096,0.042-0.096,0.097v8.428
				c0,0.053,0.042,0.096,0.096,0.096h0.795c0.052,0,0.095-0.043,0.095-0.096v-3.061c0.296,0.318,0.625,0.567,0.976,0.743
				c0.427,0.209,0.893,0.315,1.396,0.315c0.897,0,1.673-0.329,2.304-0.979c0.635-0.648,0.956-1.451,0.956-2.379
				C91.27,57.27,90.945,56.479,90.304,55.832z M90.27,58.204c0,0.415-0.107,0.818-0.322,1.2c-0.212,0.378-0.502,0.679-0.859,0.888
				c-0.726,0.428-1.604,0.418-2.342,0.002c-0.374-0.208-0.662-0.494-0.865-0.851c-0.198-0.357-0.3-0.768-0.3-1.216
				c0-0.684,0.228-1.264,0.678-1.722c0.447-0.458,1.008-0.689,1.662-0.689c0.422,0,0.818,0.104,1.173,0.311
				c0.358,0.209,0.646,0.503,0.857,0.881C90.164,57.383,90.27,57.784,90.27,58.204z"/>
		</g>
	</g>
	<g display="none">
		<path display="inline" fill="#FFFFFF" d="M11.999,58.125h0.793v1.064c0.275-0.392,0.561-0.681,0.852-0.86
			c0.398-0.242,0.822-0.362,1.264-0.362c0.298,0,0.581,0.058,0.85,0.175c0.268,0.118,0.488,0.272,0.658,0.467
			c0.168,0.195,0.317,0.474,0.44,0.839c0.264-0.487,0.596-0.854,0.99-1.104c0.395-0.251,0.822-0.379,1.278-0.379
			c0.426,0,0.802,0.107,1.127,0.323c0.327,0.215,0.567,0.516,0.728,0.9c0.158,0.385,0.236,0.963,0.236,1.732v3.367h-0.811v-3.367
			c0-0.66-0.045-1.115-0.14-1.36c-0.094-0.248-0.253-0.45-0.481-0.599c-0.227-0.151-0.501-0.227-0.817-0.227
			c-0.383,0-0.734,0.112-1.053,0.34c-0.317,0.225-0.551,0.527-0.696,0.905c-0.147,0.381-0.22,1.009-0.22,1.893v2.415h-0.794V61.13
			c0-0.742-0.046-1.248-0.138-1.513c-0.093-0.27-0.253-0.481-0.485-0.641c-0.229-0.16-0.501-0.241-0.821-0.241
			c-0.366,0-0.707,0.11-1.026,0.329c-0.32,0.223-0.557,0.519-0.708,0.894c-0.155,0.376-0.231,0.947-0.231,1.717v2.613H12
			L11.999,58.125L11.999,58.125z"/>
		<path display="inline" fill="#FFFFFF" d="M28.166,58.995c-0.625-0.688-1.412-1.03-2.362-1.03c-0.952,0-1.742,0.345-2.364,1.036
			c-0.568,0.629-0.852,1.368-0.852,2.22c0,0.863,0.299,1.614,0.899,2.259c0.6,0.646,1.372,0.965,2.316,0.965
			c0.943,0,1.713-0.319,2.314-0.965c0.599-0.645,0.898-1.396,0.898-2.259C29.016,60.367,28.731,59.624,28.166,58.995z
			 M27.888,62.486c-0.218,0.384-0.509,0.684-0.875,0.891c-0.369,0.212-0.773,0.315-1.212,0.315c-0.44,0-0.841-0.104-1.209-0.315
			c-0.368-0.207-0.659-0.507-0.876-0.891c-0.215-0.388-0.322-0.802-0.322-1.247c0-0.691,0.236-1.279,0.71-1.768
			c0.473-0.487,1.04-0.73,1.698-0.73c0.656,0,1.224,0.243,1.697,0.73c0.476,0.488,0.713,1.076,0.713,1.768
			C28.21,61.685,28.103,62.099,27.888,62.486z"/>
		<path display="inline" fill="#FFFFFF" d="M30.482,58.125h0.794v1.104c0.316-0.423,0.667-0.74,1.053-0.949
			c0.386-0.21,0.804-0.314,1.257-0.314c0.461,0,0.87,0.118,1.227,0.353c0.356,0.233,0.62,0.549,0.79,0.945
			c0.169,0.396,0.255,1.012,0.255,1.853v3.174h-0.792v-2.94c0-0.71-0.03-1.184-0.089-1.425c-0.092-0.403-0.267-0.712-0.528-0.918
			c-0.26-0.204-0.602-0.31-1.02-0.31c-0.479,0-0.91,0.159-1.288,0.477c-0.379,0.317-0.63,0.709-0.751,1.178
			c-0.075,0.306-0.112,0.863-0.112,1.677v2.263h-0.794v-6.165H30.482z"/>
		<path display="inline" fill="#FFFFFF" d="M42.071,63.117c-0.209,0.18-0.463,0.324-0.757,0.434
			c-0.298,0.108-0.604,0.165-0.919,0.165c-0.65,0-1.195-0.23-1.636-0.689c-0.443-0.457-0.671-1.041-0.688-1.758h5.544
			c-0.005-0.844-0.233-1.548-0.68-2.109c-0.626-0.796-1.464-1.194-2.516-1.194c-1.021,0-1.835,0.39-2.443,1.166
			c-0.48,0.612-0.72,1.31-0.72,2.09c0,0.832,0.282,1.574,0.849,2.235c0.566,0.66,1.356,0.988,2.356,0.988
			c0.456,0,0.862-0.069,1.222-0.207c0.358-0.137,0.682-0.34,0.967-0.604c0.289-0.263,0.542-0.609,0.762-1.041l-0.67-0.351
			C42.503,62.644,42.28,62.937,42.071,63.117z M38.873,59.309c0.434-0.388,0.953-0.584,1.56-0.584c0.366,0,0.715,0.077,1.048,0.233
			c0.335,0.154,0.602,0.358,0.803,0.61c0.203,0.253,0.355,0.592,0.461,1.016h-4.593C38.313,60.017,38.555,59.59,38.873,59.309z"/>
		<polygon display="inline" fill="#FFFFFF" points="44.434,58.125 45.272,58.125 47.392,62.87 49.446,58.125 50.291,58.125
			46.614,66.54 45.778,66.54 46.962,63.82 		"/>
	</g>
	<g display="none">
		<g display="inline">
			<path fill="#2BACE2" d="M51.795,58.125h0.786v1.056c0.272-0.39,0.554-0.673,0.842-0.853c0.397-0.239,0.814-0.358,1.253-0.358
				c0.294,0,0.575,0.057,0.843,0.173c0.265,0.117,0.48,0.271,0.65,0.463c0.169,0.194,0.314,0.47,0.438,0.829
				c0.262-0.479,0.588-0.843,0.979-1.093c0.394-0.247,0.815-0.372,1.266-0.372c0.424,0,0.794,0.104,1.119,0.319
				c0.322,0.213,0.562,0.511,0.72,0.893c0.155,0.381,0.233,0.954,0.233,1.72v3.331h-0.803v-3.331c0-0.657-0.045-1.107-0.139-1.352
				s-0.253-0.443-0.478-0.592c-0.228-0.15-0.496-0.225-0.81-0.225c-0.38,0-0.728,0.112-1.044,0.337
				c-0.313,0.226-0.545,0.522-0.689,0.897c-0.147,0.375-0.218,1-0.218,1.875v2.39h-0.787v-3.124c0-0.739-0.044-1.239-0.137-1.504
				c-0.091-0.263-0.252-0.473-0.479-0.633c-0.229-0.16-0.5-0.239-0.815-0.239c-0.361,0-0.702,0.111-1.02,0.328
				c-0.315,0.218-0.548,0.514-0.7,0.885c-0.15,0.372-0.226,0.936-0.226,1.7v2.587h-0.786V58.125z"/>
			<path fill="#2BACE2" d="M60.926,64.268h-0.803c-0.02,0-0.034-0.016-0.034-0.035v-3.333c0-0.647-0.046-1.099-0.139-1.339
				c-0.09-0.236-0.246-0.43-0.466-0.574c-0.219-0.145-0.484-0.22-0.787-0.22c-0.371,0-0.716,0.113-1.023,0.331
				c-0.309,0.221-0.535,0.518-0.679,0.883c-0.143,0.368-0.216,0.995-0.216,1.862v2.39c0,0.02-0.015,0.035-0.033,0.035h-0.787
				c-0.02,0-0.035-0.016-0.035-0.035v-3.125c0-0.731-0.044-1.231-0.135-1.489c-0.088-0.257-0.247-0.464-0.467-0.619
				c-0.222-0.153-0.488-0.232-0.794-0.232c-0.353,0-0.688,0.108-0.998,0.323c-0.307,0.214-0.541,0.505-0.689,0.87
				c-0.149,0.363-0.225,0.931-0.225,1.686v2.587c0,0.02-0.017,0.035-0.034,0.035h-0.787c-0.019,0-0.034-0.016-0.034-0.035v-6.105
				c0-0.021,0.017-0.035,0.034-0.035h0.787c0.02,0,0.034,0.015,0.034,0.035v0.943c0.254-0.343,0.519-0.604,0.788-0.771
				c0.401-0.243,0.83-0.366,1.271-0.366c0.303,0,0.59,0.059,0.857,0.177c0.27,0.12,0.494,0.277,0.664,0.473
				c0.159,0.183,0.3,0.441,0.42,0.767c0.257-0.449,0.577-0.798,0.954-1.037c0.396-0.251,0.828-0.379,1.282-0.379
				c0.427,0,0.811,0.109,1.139,0.326c0.328,0.219,0.574,0.523,0.733,0.91c0.156,0.384,0.238,0.966,0.238,1.731v3.331
				C60.962,64.251,60.944,64.268,60.926,64.268z M60.157,64.196h0.732v-3.297c0-0.755-0.075-1.328-0.232-1.705
				c-0.152-0.373-0.39-0.668-0.705-0.876s-0.685-0.314-1.099-0.314c-0.441,0-0.862,0.123-1.245,0.367
				c-0.384,0.246-0.71,0.609-0.968,1.078c-0.007,0.015-0.021,0.021-0.033,0.019c-0.014,0-0.025-0.011-0.03-0.021
				c-0.122-0.354-0.267-0.628-0.431-0.816c-0.164-0.188-0.379-0.341-0.64-0.454c-0.26-0.112-0.538-0.172-0.829-0.172
				c-0.429,0-0.844,0.119-1.236,0.354c-0.281,0.177-0.561,0.461-0.83,0.843c-0.01,0.013-0.023,0.02-0.039,0.015
				c-0.016-0.007-0.024-0.02-0.024-0.035V58.16h-0.716v6.035h0.716v-2.552c0-0.764,0.077-1.339,0.229-1.712
				c0.154-0.378,0.395-0.681,0.715-0.901c0.321-0.222,0.67-0.334,1.038-0.334c0.321,0,0.603,0.083,0.835,0.244
				c0.231,0.164,0.397,0.383,0.492,0.65c0.093,0.269,0.139,0.778,0.139,1.516v3.089h0.716v-2.354c0-0.873,0.074-1.512,0.221-1.889
				c0.147-0.376,0.383-0.684,0.702-0.913c0.321-0.228,0.679-0.343,1.065-0.343c0.317,0,0.597,0.078,0.826,0.231
				c0.23,0.153,0.397,0.357,0.494,0.608c0.094,0.247,0.14,0.705,0.14,1.363v3.297H60.157z"/>
		</g>
		<g display="inline">
			<path fill="#2BACE2" d="M65.471,57.97c0.943,0,1.723,0.34,2.342,1.021c0.561,0.619,0.842,1.355,0.842,2.205
				c0,0.853-0.296,1.599-0.891,2.236s-1.357,0.956-2.293,0.956c-0.935,0-1.7-0.318-2.295-0.956
				c-0.596-0.638-0.891-1.384-0.891-2.236c0-0.847,0.281-1.579,0.842-2.2C63.747,58.31,64.527,57.97,65.471,57.97z M65.471,58.738
				c-0.652,0-1.217,0.242-1.686,0.724c-0.469,0.483-0.702,1.066-0.702,1.752c0,0.44,0.107,0.854,0.32,1.234
				c0.214,0.382,0.504,0.676,0.867,0.882c0.366,0.208,0.765,0.313,1.2,0.313s0.837-0.105,1.199-0.313
				c0.364-0.206,0.653-0.5,0.869-0.882c0.212-0.381,0.32-0.794,0.32-1.234c0-0.686-0.236-1.269-0.706-1.752
				C66.68,58.98,66.119,58.738,65.471,58.738z"/>
			<path fill="#2BACE2" d="M65.471,64.426c-0.939,0-1.722-0.326-2.318-0.97c-0.601-0.641-0.903-1.4-0.903-2.259
				c0-0.851,0.286-1.599,0.854-2.224c0.622-0.689,1.421-1.04,2.368-1.04c0.948,0,1.744,0.348,2.368,1.033
				c0.564,0.624,0.854,1.374,0.854,2.229c0,0.856-0.305,1.618-0.901,2.26C67.191,64.1,66.41,64.426,65.471,64.426z M65.471,58.004
				c-0.927,0-1.708,0.342-2.316,1.017c-0.554,0.611-0.834,1.345-0.834,2.176c0,0.84,0.297,1.584,0.882,2.214
				c0.584,0.626,1.35,0.943,2.269,0.943c0.92,0,1.682-0.317,2.267-0.943c0.587-0.628,0.882-1.374,0.882-2.214
				c0-0.835-0.282-1.57-0.833-2.183C67.175,58.344,66.397,58.004,65.471,58.004z M65.471,63.68c-0.441,0-0.851-0.107-1.217-0.317
				c-0.369-0.208-0.666-0.511-0.883-0.897c-0.214-0.385-0.323-0.805-0.323-1.253c0-0.691,0.239-1.288,0.713-1.775
				s1.052-0.735,1.71-0.735c0.655,0,1.229,0.248,1.704,0.735c0.478,0.487,0.719,1.084,0.719,1.775c0,0.448-0.11,0.868-0.327,1.253
				c-0.215,0.386-0.512,0.689-0.879,0.897C66.32,63.573,65.91,63.68,65.471,63.68z M65.471,58.774c-0.641,0-1.2,0.239-1.66,0.712
				c-0.459,0.476-0.694,1.056-0.694,1.728c0,0.433,0.106,0.843,0.317,1.217c0.209,0.375,0.498,0.669,0.854,0.871
				c0.357,0.203,0.754,0.308,1.184,0.308c0.429,0,0.825-0.104,1.184-0.308c0.354-0.204,0.642-0.496,0.853-0.871
				c0.208-0.374,0.316-0.782,0.316-1.217c0-0.672-0.234-1.252-0.696-1.728C66.662,59.014,66.104,58.774,65.471,58.774z"/>
		</g>
		<g display="inline">
			<path fill="#2BACE2" d="M70.158,64.232V55.77h0.785v3.407c0.329-0.404,0.697-0.707,1.105-0.906
				c0.407-0.201,0.855-0.301,1.339-0.301c0.865,0,1.601,0.312,2.213,0.939c0.61,0.627,0.917,1.388,0.917,2.283
				c0,0.879-0.309,1.636-0.926,2.262c-0.616,0.623-1.359,0.936-2.226,0.936c-0.496,0-0.947-0.107-1.352-0.318
				c-0.403-0.213-0.756-0.534-1.069-0.962v1.123H70.158z M73.301,63.633c0.438,0,0.84-0.108,1.21-0.323
				c0.371-0.215,0.665-0.518,0.883-0.907c0.217-0.388,0.326-0.8,0.326-1.232c0-0.435-0.109-0.849-0.33-1.242
				c-0.219-0.392-0.516-0.697-0.888-0.917c-0.371-0.218-0.768-0.327-1.188-0.327c-0.429,0-0.836,0.109-1.225,0.327
				c-0.387,0.22-0.684,0.514-0.891,0.884c-0.207,0.371-0.31,0.788-0.31,1.253c0,0.706,0.233,1.297,0.697,1.773
				C72.051,63.395,72.622,63.633,73.301,63.633z"/>
			<path fill="#2BACE2" d="M73.364,64.426c-0.498,0-0.957-0.109-1.367-0.325c-0.379-0.2-0.722-0.497-1.019-0.885v1.017
				c0,0.02-0.016,0.035-0.035,0.035h-0.785c-0.02,0-0.035-0.016-0.035-0.035V55.77c0-0.02,0.018-0.035,0.035-0.035h0.785
				c0.021,0,0.035,0.016,0.035,0.035v3.311c0.315-0.371,0.671-0.653,1.055-0.843c0.409-0.2,0.866-0.304,1.354-0.304
				c0.87,0,1.622,0.319,2.236,0.952c0.615,0.631,0.928,1.405,0.928,2.308c0,0.887-0.317,1.656-0.935,2.286
				C74.997,64.107,74.238,64.426,73.364,64.426z M70.943,63.076c0.012,0,0.021,0.005,0.028,0.013c0.306,0.42,0.661,0.739,1.061,0.95
				c0.396,0.209,0.845,0.314,1.332,0.314c0.855,0,1.594-0.311,2.202-0.926c0.606-0.614,0.914-1.367,0.914-2.235
				c0-0.883-0.305-1.641-0.904-2.258c-0.603-0.618-1.339-0.931-2.188-0.931c-0.476,0-0.923,0.101-1.322,0.298
				c-0.403,0.195-0.77,0.496-1.094,0.897c-0.011,0.01-0.024,0.017-0.039,0.01c-0.017-0.006-0.024-0.02-0.024-0.033v-3.373h-0.715
				v8.393h0.715v-1.088c0-0.016,0.009-0.028,0.024-0.032C70.937,63.076,70.941,63.076,70.943,63.076z M73.301,63.668
				c-0.685,0-1.271-0.245-1.739-0.725c-0.47-0.479-0.709-1.084-0.709-1.798c0-0.47,0.107-0.896,0.315-1.268
				c0.21-0.376,0.515-0.679,0.904-0.899c0.391-0.221,0.807-0.332,1.241-0.332c0.426,0,0.832,0.111,1.206,0.332
				c0.377,0.221,0.68,0.535,0.904,0.931c0.221,0.397,0.332,0.819,0.332,1.259s-0.111,0.859-0.332,1.252
				c-0.219,0.392-0.521,0.702-0.896,0.92C74.156,63.556,73.742,63.668,73.301,63.668z M73.313,58.718
				c-0.422,0-0.828,0.109-1.208,0.322c-0.377,0.216-0.671,0.508-0.874,0.871c-0.202,0.361-0.307,0.777-0.307,1.236
				c0,0.693,0.23,1.283,0.687,1.747c0.456,0.467,1.025,0.703,1.69,0.703c0.428,0,0.829-0.108,1.191-0.317
				c0.363-0.212,0.655-0.512,0.869-0.894c0.216-0.381,0.326-0.79,0.326-1.217c0-0.428-0.11-0.838-0.328-1.225
				c-0.217-0.387-0.513-0.691-0.874-0.905C74.121,58.826,73.726,58.718,73.313,58.718z"/>
		</g>
		<g display="inline">
			<path fill="#2BACE2" d="M78.221,55.678c0.181,0,0.336,0.064,0.465,0.193c0.128,0.129,0.193,0.285,0.193,0.466
				s-0.066,0.334-0.193,0.463c-0.126,0.127-0.284,0.191-0.465,0.191c-0.176,0-0.33-0.064-0.458-0.191
				c-0.127-0.129-0.193-0.282-0.193-0.463s0.066-0.336,0.193-0.466C77.891,55.742,78.045,55.678,78.221,55.678z"/>
			<path fill="#2BACE2" d="M78.221,57.027c-0.187,0-0.35-0.068-0.484-0.203c-0.134-0.137-0.203-0.299-0.203-0.487
				c0-0.189,0.069-0.355,0.203-0.492c0.136-0.135,0.3-0.203,0.484-0.203c0.19,0,0.354,0.068,0.488,0.203
				c0.137,0.139,0.203,0.303,0.203,0.492c0,0.188-0.066,0.351-0.203,0.487C78.576,56.959,78.411,57.027,78.221,57.027z
				 M78.221,55.713c-0.166,0-0.311,0.062-0.433,0.183c-0.122,0.124-0.183,0.269-0.183,0.441c0,0.17,0.059,0.312,0.183,0.435
				c0.119,0.122,0.266,0.183,0.433,0.183c0.173,0,0.319-0.061,0.439-0.183c0.122-0.124,0.185-0.267,0.185-0.435
				c0-0.172-0.062-0.319-0.185-0.441C78.54,55.775,78.391,55.713,78.221,55.713z"/>
		</g>
		<g display="inline">
			<rect x="77.83" y="58.125" fill="#2BACE2" width="0.786" height="6.104"/>
			<path fill="#2BACE2" d="M78.616,64.268H77.83c-0.02,0-0.034-0.016-0.034-0.035v-6.105c0-0.021,0.017-0.035,0.034-0.035h0.786
				c0.021,0,0.037,0.015,0.037,0.035v6.105C78.653,64.251,78.637,64.268,78.616,64.268z M77.868,64.196h0.714v-6.035h-0.714V64.196z
				"/>
		</g>
		<g display="inline">
			<path fill="#2BACE2" d="M80.131,55.77h0.787v8.463h-0.787V55.77z"/>
			<path fill="#2BACE2" d="M80.919,64.268h-0.786c-0.02,0-0.035-0.016-0.035-0.035V55.77c0-0.02,0.017-0.035,0.035-0.035h0.786
				c0.021,0,0.034,0.016,0.034,0.035v8.463C80.953,64.251,80.938,64.268,80.919,64.268z M80.167,64.196h0.717v-8.392h-0.717V64.196z
				"/>
		</g>
		<g display="inline">
			<path fill="#2BACE2" d="M87.692,62.206l0.662,0.348c-0.218,0.427-0.467,0.771-0.752,1.033c-0.284,0.262-0.605,0.46-0.961,0.597
				c-0.356,0.137-0.76,0.205-1.206,0.205c-1.001,0-1.776-0.325-2.339-0.979c-0.561-0.653-0.843-1.391-0.843-2.214
				c0-0.776,0.239-1.466,0.714-2.07c0.603-0.771,1.41-1.156,2.42-1.156c1.043,0,1.872,0.395,2.494,1.183
				c0.44,0.559,0.666,1.255,0.677,2.089h-5.496c0.014,0.711,0.241,1.291,0.679,1.744c0.439,0.453,0.98,0.682,1.625,0.682
				c0.311,0,0.613-0.056,0.907-0.164c0.294-0.107,0.545-0.251,0.753-0.429C87.231,62.895,87.453,62.605,87.692,62.206z
				 M87.692,60.563c-0.106-0.419-0.257-0.755-0.457-1.005c-0.201-0.251-0.468-0.454-0.796-0.607
				c-0.331-0.153-0.677-0.229-1.04-0.229c-0.599,0-1.116,0.191-1.545,0.577c-0.314,0.28-0.555,0.702-0.714,1.264H87.692z"/>
			<path fill="#2BACE2" d="M85.436,64.426c-1.007,0-1.801-0.335-2.363-0.992c-0.566-0.658-0.854-1.41-0.854-2.236
				c0-0.779,0.241-1.482,0.722-2.093c0.605-0.776,1.43-1.171,2.446-1.171c1.049,0,1.896,0.403,2.525,1.199
				c0.442,0.56,0.671,1.271,0.681,2.108c0,0.01-0.004,0.02-0.012,0.025c-0.006,0.007-0.017,0.011-0.022,0.011h-5.46
				c0.022,0.681,0.247,1.248,0.67,1.684c0.428,0.447,0.966,0.672,1.598,0.672c0.305,0,0.604-0.056,0.896-0.161
				c0.289-0.105,0.536-0.248,0.739-0.425c0.203-0.175,0.426-0.464,0.662-0.856c0.008-0.018,0.029-0.024,0.046-0.014l0.662,0.349
				c0.019,0.01,0.024,0.028,0.017,0.044c-0.22,0.43-0.475,0.781-0.761,1.045c-0.285,0.264-0.612,0.465-0.971,0.604
				C86.296,64.356,85.886,64.426,85.436,64.426z M85.387,58.004c-0.994,0-1.799,0.386-2.392,1.143
				c-0.469,0.597-0.706,1.288-0.706,2.05c0,0.81,0.281,1.546,0.834,2.189c0.551,0.643,1.329,0.968,2.312,0.968
				c0.439,0,0.844-0.069,1.194-0.202c0.348-0.135,0.668-0.333,0.948-0.592c0.272-0.251,0.518-0.584,0.729-0.992l-0.602-0.315
				c-0.236,0.385-0.457,0.671-0.658,0.848c-0.209,0.181-0.464,0.327-0.762,0.436c-0.299,0.108-0.608,0.165-0.92,0.165
				c-0.649,0-1.206-0.233-1.649-0.691s-0.674-1.053-0.69-1.769c-0.001-0.008,0.004-0.02,0.01-0.023
				c0.009-0.007,0.017-0.011,0.026-0.011h5.457c-0.013-0.808-0.239-1.49-0.664-2.031C87.241,58.398,86.412,58.004,85.387,58.004z
				 M87.692,60.599h-4.552c-0.011,0-0.022-0.007-0.026-0.015c-0.008-0.011-0.01-0.021-0.008-0.031
				c0.164-0.565,0.407-0.997,0.726-1.28c0.436-0.389,0.962-0.586,1.568-0.586c0.367,0,0.723,0.078,1.057,0.234
				c0.332,0.154,0.604,0.362,0.807,0.615c0.201,0.253,0.359,0.595,0.463,1.019c0.004,0.01,0,0.02-0.006,0.029
				C87.713,60.592,87.703,60.599,87.692,60.599z M83.188,60.526h4.459c-0.104-0.393-0.252-0.711-0.438-0.947
				c-0.196-0.243-0.461-0.445-0.785-0.597c-0.322-0.151-0.667-0.227-1.024-0.227c-0.587,0-1.099,0.19-1.521,0.569
				C83.58,59.591,83.347,59.996,83.188,60.526z"/>
		</g>
	</g>
	<g display="none">
		<g display="inline">
			<polygon fill="#2BACE2" points="78.885,52.329 82.359,52.329 75.152,2.235 71.678,2.235 			"/>
		</g>
		<g display="inline">
			<polygon fill="#84D4F0" points="78.856,2.235 75.983,2.235 83.191,52.329 86.063,52.329 			"/>
		</g>
		<g display="inline">
			<polygon fill="#ABE0F4" points="81.177,2.235 79.631,2.235 86.837,52.329 88.384,52.329 			"/>
		</g>
		<g display="inline">
			<polygon fill="#FFFFFF" points="63.099,2.235 45.155,38.808 27.034,2.235 19.171,2.235 11.999,52.329 21.229,52.329
				25.679,19.684 41.886,52.329 48.365,52.329 64.355,19.986 68.827,52.329 78.137,52.329 70.928,2.235 			"/>
		</g>
	</g>
</g>
<g id="Layer_2" display="none">
	<g id="on_Dark_1_" display="inline">
		<path id="White_BAse_6_" fill="#FFFFFF" d="M80.611,21.625c-0.738-1.749-1.654-3.437-2.721-5.015
			c-1.057-1.563-2.271-3.033-3.605-4.369c-1.336-1.337-2.807-2.55-4.37-3.606c-1.578-1.066-3.267-1.981-5.015-2.722
			c-3.641-1.54-7.508-2.319-11.493-2.319c-3.984,0-7.852,0.779-11.49,2.319c-1.75,0.74-3.438,1.655-5.016,2.722
			c-1.562,1.057-3.033,2.27-4.37,3.606c-1.336,1.336-2.549,2.806-3.604,4.369c-1.066,1.578-1.982,3.266-2.723,5.015
			c-1.478,3.494-2.257,7.199-2.315,11.016h3.548c0.06-3.312,0.734-6.528,2.009-9.567c1.29-3.074,3.139-5.841,5.494-8.223l0.14-0.14
			l0.396-0.242l0.34,0.381l2.748,2.749c1.973-1.89,4.247-3.364,6.765-4.385c2.573-1.044,5.292-1.573,8.08-1.573
			c2.791,0,5.509,0.529,8.082,1.573c2.665,1.08,5.056,2.667,7.106,4.718c2.049,2.05,3.637,4.44,4.717,7.104
			c1.043,2.574,1.572,5.294,1.572,8.082c0,2.789-0.529,5.509-1.572,8.082c-1.08,2.664-2.668,5.054-4.717,7.104
			c-2.052,2.051-4.441,3.639-7.106,4.719c-2.573,1.044-5.291,1.572-8.082,1.572c-2.788,0-5.507-0.528-8.08-1.572
			c-2.518-1.021-4.792-2.495-6.765-4.385l-2.509,2.508c2.312,2.229,4.98,3.965,7.938,5.164c2.999,1.217,6.167,1.832,9.417,1.832
			c0.031,0,0.062,0,0.094,0h0.001h0.002h0.785v4.488c3.674-0.106,7.239-0.883,10.61-2.309c1.748-0.739,3.437-1.655,5.015-2.723
			c1.563-1.057,3.034-2.269,4.37-3.604s2.55-2.808,3.605-4.37c1.065-1.578,1.981-3.266,2.722-5.014
			c1.54-3.641,2.319-7.508,2.319-11.493C82.934,29.132,82.152,25.265,80.611,21.625z"/>
		<g>
			<path fill="#FFFFFF" d="M16.542,45.596v-9.727h1.21v9.727H16.542z"/>
			<path fill="#FFFFFF" d="M26.908,45.596l-5.672-7.758v7.758h-1.21v-9.727h1.24l5.599,7.598v-7.598h1.21v9.727H26.908z"/>
			<path fill="#FFFFFF" d="M29.766,44.225l0.715-0.92c0.642,0.717,1.691,1.386,3.062,1.386c1.734,0,2.289-0.935,2.289-1.677
				c0-2.508-5.76-1.123-5.76-4.592c0-1.604,1.43-2.697,3.339-2.697c1.487,0,2.639,0.494,3.456,1.354l-0.729,0.89
				c-0.729-0.802-1.749-1.166-2.813-1.166c-1.166,0-1.998,0.627-1.998,1.545c0,2.188,5.76,0.934,5.76,4.563
				c0,1.415-0.963,2.856-3.587,2.856C31.808,45.77,30.568,45.128,29.766,44.225z"/>
			<path fill="#FFFFFF" d="M38.894,45.596v-9.727h1.21v9.727H38.894z"/>
			<path fill="#FFFFFF" d="M41.984,40.739c0-3.019,2.231-5.029,5.001-5.029c1.721,0,2.916,0.759,3.777,1.822L49.8,38.129
				c-0.613-0.785-1.649-1.34-2.815-1.34c-2.128,0-3.747,1.633-3.747,3.95c0,2.305,1.619,3.966,3.747,3.966
				c1.166,0,2.13-0.568,2.61-1.049v-1.982h-3.339v-1.08h4.549v3.515c-0.904,1.007-2.229,1.676-3.82,1.676
				C44.216,45.783,41.984,43.758,41.984,40.739z"/>
			<path fill="#FFFFFF" d="M59.671,45.596v-4.461h-5.687v4.461h-1.211v-9.727h1.211v4.188h5.687v-4.188h1.211v9.727H59.671z"/>
			<path fill="#FFFFFF" d="M65.561,45.596v-8.646h-3.076V35.87h7.379v1.079h-3.092v8.646H65.561z"/>
		</g>
		<path id="Outer_Arc_6_" fill="#FBB041" d="M27.958,33.117c0-14.084,11.417-25.5,25.5-25.5s25.5,11.416,25.5,25.5
			s-11.417,25.501-25.5,25.501v4.499c16.567,0,30-13.432,30-30c0-16.569-13.433-30-30-30c-16.569,0-30,13.431-30,30H27.958z"/>
		<path id="Inner_Arc_6_" fill="#FFFFFF" d="M38.608,18.268c8.201-8.201,21.498-8.201,29.699,0c8.201,8.201,8.2,21.498,0,29.699
			c-8.201,8.2-21.498,8.2-29.699,0l-3.182,3.183c9.959,9.958,26.104,9.958,36.062,0c9.959-9.959,9.959-26.105,0-36.063
			c-9.959-9.959-26.104-9.959-36.062,0L38.608,18.268z"/>
	</g>
</g>
<g id="Layer_3" display="none">
	<g id="on_Dark" display="inline">
		<path id="White_BAse_7_" fill="#FFFFFF" d="M21.482,23.037c-0.715,1.76-1.26,3.602-1.622,5.471
			c-0.359,1.853-0.541,3.75-0.541,5.64c0,1.889,0.182,3.786,0.541,5.64c0.362,1.87,0.907,3.71,1.622,5.471
			c1.484,3.662,3.667,6.947,6.485,9.767c2.819,2.819,6.104,5.001,9.766,6.485c1.76,0.715,3.601,1.26,5.471,1.621
			c1.852,0.358,3.75,0.541,5.639,0.541c1.89,0,3.787-0.183,5.64-0.541c1.871-0.361,3.711-0.906,5.471-1.621
			c3.518-1.427,6.688-3.494,9.427-6.151l-2.508-2.509c-2.386,2.302-5.138,4.099-8.187,5.345c-3.086,1.263-6.35,1.911-9.697,1.93
			l-0.199,0.002l-0.451-0.108l0.029-0.51v-3.891c-2.73-0.059-5.38-0.624-7.883-1.684c-2.558-1.082-4.854-2.629-6.826-4.602
			c-1.972-1.972-3.52-4.271-4.602-6.826c-1.12-2.647-1.688-5.461-1.688-8.359s0.568-5.711,1.688-8.359
			c1.082-2.559,2.63-4.854,4.602-6.826c1.972-1.972,4.269-3.521,6.826-4.603c2.649-1.12,5.461-1.688,8.36-1.688
			c2.899,0,5.711,0.567,8.36,1.688c2.557,1.081,4.853,2.63,6.825,4.603c1.972,1.973,3.521,4.27,4.603,6.826
			c1.06,2.503,1.624,5.152,1.683,7.883h3.549c-0.061-3.209-0.719-6.322-1.963-9.264c-1.26-2.979-3.064-5.655-5.362-7.953
			c-0.021-0.023-0.043-0.045-0.065-0.066l0,0l-0.002-0.002l-0.556-0.555l3.174-3.174c-2.674-2.523-5.743-4.496-9.135-5.871
			c-1.761-0.715-3.601-1.26-5.472-1.621c-1.852-0.359-3.748-0.541-5.639-0.541c-1.889,0-3.787,0.182-5.639,0.541
			c-1.87,0.361-3.711,0.906-5.471,1.621c-3.662,1.484-6.947,3.666-9.766,6.484C25.149,16.088,22.967,19.375,21.482,23.037z"/>
		<g>
			<path fill="#FFFFFF" d="M36.061,46.588v-8.645h-3.077v-1.079h7.377v1.079H37.27v8.645H36.061z"/>
			<path fill="#FFFFFF" d="M47.93,46.588l-0.861-2.156h-4.839l-0.86,2.156h-1.385l3.907-9.724h1.502l3.921,9.724H47.93z
				 M44.649,38.118l-2.07,5.233h4.126L44.649,38.118z"/>
			<path fill="#FFFFFF" d="M56.21,46.588l-2.478-3.861h-1.939v3.861h-1.211v-9.724h3.906c1.779,0,3.049,1.137,3.049,2.93
				c0,1.75-1.195,2.714-2.521,2.828l2.625,3.966H56.21z M56.283,39.794c0-1.093-0.786-1.851-1.939-1.851h-2.551v3.717h2.551
				C55.497,41.66,56.283,40.889,56.283,39.794z"/>
			<path fill="#FFFFFF" d="M59.053,41.734c0-3.02,2.231-5.031,5.002-5.031c1.721,0,2.916,0.76,3.775,1.822l-0.961,0.599
				c-0.613-0.786-1.646-1.342-2.814-1.342c-2.13,0-3.748,1.633-3.748,3.952c0,2.304,1.618,3.965,3.748,3.965
				c1.168,0,2.129-0.568,2.609-1.051v-1.982h-3.34v-1.078h4.55v3.516c-0.903,1.005-2.229,1.676-3.819,1.676
				C61.284,46.778,59.053,44.752,59.053,41.734z"/>
			<path fill="#FFFFFF" d="M69.843,46.588v-9.724h6.37v1.079h-5.16v3.135h5.061v1.079h-5.061v3.354h5.16v1.076H69.843L69.843,46.588
				z"/>
			<path fill="#FFFFFF" d="M80.545,46.588v-8.645h-3.077v-1.079h7.378v1.079h-3.091v8.645H80.545z"/>
		</g>
		<path id="Outer_Arc_7_" fill="#C33C32" d="M66.84,52.143c-9.959,9.959-26.104,9.959-36.062,0c-9.958-9.957-9.958-26.104,0-36.062
			c9.958-9.959,26.104-9.959,36.062-0.001l3.182-3.183c-11.715-11.715-30.709-11.715-42.425,0
			c-11.716,11.717-11.716,30.712,0,42.428c11.715,11.715,30.71,11.715,42.425,0L66.84,52.143z"/>
		<path id="Inner_Arc_7_" fill="#FFFFFF" d="M48.809,55.112c-11.598,0-21-9.403-21-21.001s9.402-21,21-21c11.599,0,21,9.402,21,21
			h4.5c0-14.083-11.416-25.5-25.5-25.5c-14.083,0-25.5,11.417-25.5,25.5c0,14.084,11.417,25.5,25.5,25.5V55.112z"/>
	</g>
</g>
</svg>
